<?xml version="1.0" encoding="UTF-8" standalone="no"?><svg xmlns="http://www.w3.org/2000/svg" xmlns:xlink="http://www.w3.org/1999/xlink" contentStyleType="text/css" height="375px" preserveAspectRatio="none" style="width:1303px;height:375px;background:#FFFFFF;" version="1.1" viewBox="0 0 1303 375" width="1303px" zoomAndPan="magnify"><defs/><g><text fill="#000000" font-family="sans-serif" font-size="14" font-weight="bold" lengthAdjust="spacing" textLength="61" x="617" y="34.5332">ARR = 10</text><line style="stroke:#333333;stroke-width:0.5;" x1="10" x2="10" y1="48.6094" y2="296.9688"/><line style="stroke:#333333;stroke-width:0.5;" x1="1286" x2="1286" y1="48.6094" y2="296.9688"/><line style="stroke:#333333;stroke-width:0.5;stroke-dasharray:3.0,5.0;" x1="81" x2="81" y1="48.6094" y2="296.9688"/><line style="stroke:#333333;stroke-width:0.5;stroke-dasharray:3.0,5.0;" x1="131" x2="131" y1="48.6094" y2="296.9688"/><line style="stroke:#333333;stroke-width:0.5;stroke-dasharray:3.0,5.0;" x1="181" x2="181" y1="48.6094" y2="296.9688"/><line style="stroke:#333333;stroke-width:0.5;stroke-dasharray:3.0,5.0;" x1="231" x2="231" y1="48.6094" y2="296.9688"/><line style="stroke:#333333;stroke-width:0.5;stroke-dasharray:3.0,5.0;" x1="281" x2="281" y1="48.6094" y2="296.9688"/><line style="stroke:#333333;stroke-width:0.5;stroke-dasharray:3.0,5.0;" x1="331" x2="331" y1="48.6094" y2="296.9688"/><line style="stroke:#333333;stroke-width:0.5;stroke-dasharray:3.0,5.0;" x1="381" x2="381" y1="48.6094" y2="296.9688"/><line style="stroke:#333333;stroke-width:0.5;stroke-dasharray:3.0,5.0;" x1="431" x2="431" y1="48.6094" y2="296.9688"/><line style="stroke:#333333;stroke-width:0.5;stroke-dasharray:3.0,5.0;" x1="481" x2="481" y1="48.6094" y2="296.9688"/><line style="stroke:#333333;stroke-width:0.5;stroke-dasharray:3.0,5.0;" x1="531" x2="531" y1="48.6094" y2="296.9688"/><line style="stroke:#333333;stroke-width:0.5;stroke-dasharray:3.0,5.0;" x1="581" x2="581" y1="48.6094" y2="296.9688"/><line style="stroke:#333333;stroke-width:0.5;stroke-dasharray:3.0,5.0;" x1="631" x2="631" y1="48.6094" y2="296.9688"/><line style="stroke:#333333;stroke-width:0.5;stroke-dasharray:3.0,5.0;" x1="681" x2="681" y1="48.6094" y2="296.9688"/><line style="stroke:#333333;stroke-width:0.5;stroke-dasharray:3.0,5.0;" x1="731" x2="731" y1="48.6094" y2="296.9688"/><line style="stroke:#333333;stroke-width:0.5;stroke-dasharray:3.0,5.0;" x1="781" x2="781" y1="48.6094" y2="296.9688"/><line style="stroke:#333333;stroke-width:0.5;stroke-dasharray:3.0,5.0;" x1="831" x2="831" y1="48.6094" y2="296.9688"/><line style="stroke:#333333;stroke-width:0.5;stroke-dasharray:3.0,5.0;" x1="881" x2="881" y1="48.6094" y2="296.9688"/><line style="stroke:#333333;stroke-width:0.5;stroke-dasharray:3.0,5.0;" x1="931" x2="931" y1="48.6094" y2="296.9688"/><line style="stroke:#333333;stroke-width:0.5;stroke-dasharray:3.0,5.0;" x1="981" x2="981" y1="48.6094" y2="296.9688"/><line style="stroke:#333333;stroke-width:0.5;stroke-dasharray:3.0,5.0;" x1="1031" x2="1031" y1="48.6094" y2="296.9688"/><line style="stroke:#333333;stroke-width:0.5;stroke-dasharray:3.0,5.0;" x1="1081" x2="1081" y1="48.6094" y2="296.9688"/><line style="stroke:#333333;stroke-width:0.5;stroke-dasharray:3.0,5.0;" x1="1131" x2="1131" y1="48.6094" y2="296.9688"/><line style="stroke:#333333;stroke-width:0.5;stroke-dasharray:3.0,5.0;" x1="1181" x2="1181" y1="48.6094" y2="296.9688"/><line style="stroke:#333333;stroke-width:0.5;stroke-dasharray:3.0,5.0;" x1="1231" x2="1231" y1="48.6094" y2="296.9688"/><line style="stroke:#333333;stroke-width:0.5;stroke-dasharray:3.0,5.0;" x1="1281" x2="1281" y1="48.6094" y2="296.9688"/><line style="stroke:#333333;stroke-width:0.5;" x1="10" x2="1286" y1="48.6094" y2="48.6094"/><text fill="#333333" font-family="sans-serif" font-size="14" font-weight="bold" lengthAdjust="spacing" textLength="28" x="15" y="63.1426">CNT</text><line style="stroke:#333333;stroke-width:0.5;" x1="10" x2="44" y1="67.2188" y2="67.2188"/><line style="stroke:#333333;stroke-width:0.5;" x1="44" x2="54" y1="67.2188" y2="48.6094"/><polygon fill="#E2E2F0" points="93,72.2188,119,72.2188,131,84.2188,119,96.2188,93,96.2188,81,84.2188" style="stroke:#006400;stroke-width:1.5;"/><polygon fill="#E2E2F0" points="143,72.2188,169,72.2188,181,84.2188,169,96.2188,143,96.2188,131,84.2188" style="stroke:#006400;stroke-width:1.5;"/><polygon fill="#E2E2F0" points="193,72.2188,219,72.2188,231,84.2188,219,96.2188,193,96.2188,181,84.2188" style="stroke:#006400;stroke-width:1.5;"/><polygon fill="#E2E2F0" points="243,72.2188,269,72.2188,281,84.2188,269,96.2188,243,96.2188,231,84.2188" style="stroke:#006400;stroke-width:1.5;"/><polygon fill="#E2E2F0" points="293,72.2188,319,72.2188,331,84.2188,319,96.2188,293,96.2188,281,84.2188" style="stroke:#006400;stroke-width:1.5;"/><polygon fill="#E2E2F0" points="343,72.2188,369,72.2188,381,84.2188,369,96.2188,343,96.2188,331,84.2188" style="stroke:#006400;stroke-width:1.5;"/><polygon fill="#E2E2F0" points="393,72.2188,419,72.2188,431,84.2188,419,96.2188,393,96.2188,381,84.2188" style="stroke:#006400;stroke-width:1.5;"/><polygon fill="#E2E2F0" points="443,72.2188,469,72.2188,481,84.2188,469,96.2188,443,96.2188,431,84.2188" style="stroke:#006400;stroke-width:1.5;"/><polygon fill="#E2E2F0" points="493,72.2188,519,72.2188,531,84.2188,519,96.2188,493,96.2188,481,84.2188" style="stroke:#006400;stroke-width:1.5;"/><polygon fill="#E2E2F0" points="543,72.2188,569,72.2188,581,84.2188,569,96.2188,543,96.2188,531,84.2188" style="stroke:#006400;stroke-width:1.5;"/><polygon fill="#E2E2F0" points="593,72.2188,619,72.2188,631,84.2188,619,96.2188,593,96.2188,581,84.2188" style="stroke:#006400;stroke-width:1.5;"/><polygon fill="#E2E2F0" points="643,72.2188,669,72.2188,681,84.2188,669,96.2188,643,96.2188,631,84.2188" style="stroke:#006400;stroke-width:1.5;"/><polygon fill="#E2E2F0" points="693,72.2188,719,72.2188,731,84.2188,719,96.2188,693,96.2188,681,84.2188" style="stroke:#006400;stroke-width:1.5;"/><polygon fill="#E2E2F0" points="743,72.2188,769,72.2188,781,84.2188,769,96.2188,743,96.2188,731,84.2188" style="stroke:#006400;stroke-width:1.5;"/><polygon fill="#E2E2F0" points="793,72.2188,819,72.2188,831,84.2188,819,96.2188,793,96.2188,781,84.2188" style="stroke:#006400;stroke-width:1.5;"/><polygon fill="#E2E2F0" points="843,72.2188,869,72.2188,881,84.2188,869,96.2188,843,96.2188,831,84.2188" style="stroke:#006400;stroke-width:1.5;"/><polygon fill="#E2E2F0" points="893,72.2188,919,72.2188,931,84.2188,919,96.2188,893,96.2188,881,84.2188" style="stroke:#006400;stroke-width:1.5;"/><polygon fill="#E2E2F0" points="943,72.2188,969,72.2188,981,84.2188,969,96.2188,943,96.2188,931,84.2188" style="stroke:#006400;stroke-width:1.5;"/><polygon fill="#E2E2F0" points="993,72.2188,1019,72.2188,1031,84.2188,1019,96.2188,993,96.2188,981,84.2188" style="stroke:#006400;stroke-width:1.5;"/><polygon fill="#E2E2F0" points="1043,72.2188,1069,72.2188,1081,84.2188,1069,96.2188,1043,96.2188,1031,84.2188" style="stroke:#006400;stroke-width:1.5;"/><polygon fill="#E2E2F0" points="1093,72.2188,1119,72.2188,1131,84.2188,1119,96.2188,1093,96.2188,1081,84.2188" style="stroke:#006400;stroke-width:1.5;"/><polygon fill="#E2E2F0" points="1143,72.2188,1169,72.2188,1181,84.2188,1169,96.2188,1143,96.2188,1131,84.2188" style="stroke:#006400;stroke-width:1.5;"/><polygon fill="#E2E2F0" points="1193,72.2188,1219,72.2188,1231,84.2188,1219,96.2188,1193,96.2188,1181,84.2188" style="stroke:#006400;stroke-width:1.5;"/><polygon fill="#E2E2F0" points="1243,72.2188,1281,72.2188,1281,96.2188,1243,96.2188,1231,84.2188" style="stroke:#E2E2F0;stroke-width:1.5;"/><path d="M1281,72.2188 L1243,72.2188 L1231,84.2188 L1243,96.2188 L1281,96.2188 " fill="#E2E2F0" style="stroke:#006400;stroke-width:1.5;"/><text fill="#333333" font-family="sans-serif" font-size="12" font-weight="bold" lengthAdjust="spacing" textLength="7" x="102.5" y="89.1289">0</text><text fill="#333333" font-family="sans-serif" font-size="12" font-weight="bold" lengthAdjust="spacing" textLength="7" x="152.5" y="89.1289">1</text><text fill="#333333" font-family="sans-serif" font-size="12" font-weight="bold" lengthAdjust="spacing" textLength="7" x="202.5" y="89.1289">2</text><text fill="#333333" font-family="sans-serif" font-size="12" font-weight="bold" lengthAdjust="spacing" textLength="7" x="252.5" y="89.1289">3</text><text fill="#333333" font-family="sans-serif" font-size="12" font-weight="bold" lengthAdjust="spacing" textLength="7" x="302.5" y="89.1289">4</text><text fill="#333333" font-family="sans-serif" font-size="12" font-weight="bold" lengthAdjust="spacing" textLength="7" x="352.5" y="89.1289">5</text><text fill="#333333" font-family="sans-serif" font-size="12" font-weight="bold" lengthAdjust="spacing" textLength="7" x="402.5" y="89.1289">6</text><text fill="#333333" font-family="sans-serif" font-size="12" font-weight="bold" lengthAdjust="spacing" textLength="7" x="452.5" y="89.1289">7</text><text fill="#333333" font-family="sans-serif" font-size="12" font-weight="bold" lengthAdjust="spacing" textLength="7" x="502.5" y="89.1289">8</text><text fill="#333333" font-family="sans-serif" font-size="12" font-weight="bold" lengthAdjust="spacing" textLength="7" x="552.5" y="89.1289">9</text><text fill="#333333" font-family="sans-serif" font-size="12" font-weight="bold" lengthAdjust="spacing" textLength="7" x="602.5" y="89.1289">0</text><text fill="#333333" font-family="sans-serif" font-size="12" font-weight="bold" lengthAdjust="spacing" textLength="7" x="652.5" y="89.1289">1</text><text fill="#333333" font-family="sans-serif" font-size="12" font-weight="bold" lengthAdjust="spacing" textLength="7" x="702.5" y="89.1289">2</text><text fill="#333333" font-family="sans-serif" font-size="12" font-weight="bold" lengthAdjust="spacing" textLength="7" x="752.5" y="89.1289">3</text><text fill="#333333" font-family="sans-serif" font-size="12" font-weight="bold" lengthAdjust="spacing" textLength="7" x="802.5" y="89.1289">4</text><text fill="#333333" font-family="sans-serif" font-size="12" font-weight="bold" lengthAdjust="spacing" textLength="7" x="852.5" y="89.1289">5</text><text fill="#333333" font-family="sans-serif" font-size="12" font-weight="bold" lengthAdjust="spacing" textLength="7" x="902.5" y="89.1289">6</text><text fill="#333333" font-family="sans-serif" font-size="12" font-weight="bold" lengthAdjust="spacing" textLength="7" x="952.5" y="89.1289">7</text><text fill="#333333" font-family="sans-serif" font-size="12" font-weight="bold" lengthAdjust="spacing" textLength="7" x="1002.5" y="89.1289">8</text><text fill="#333333" font-family="sans-serif" font-size="12" font-weight="bold" lengthAdjust="spacing" textLength="7" x="1052.5" y="89.1289">9</text><text fill="#333333" font-family="sans-serif" font-size="12" font-weight="bold" lengthAdjust="spacing" textLength="7" x="1102.5" y="89.1289">0</text><text fill="#333333" font-family="sans-serif" font-size="12" font-weight="bold" lengthAdjust="spacing" textLength="7" x="1152.5" y="89.1289">1</text><text fill="#333333" font-family="sans-serif" font-size="12" font-weight="bold" lengthAdjust="spacing" textLength="7" x="1202.5" y="89.1289">2</text><text fill="#333333" font-family="sans-serif" font-size="12" font-weight="bold" lengthAdjust="spacing" textLength="7" x="1243" y="89.1289">3</text><line style="stroke:#333333;stroke-width:0.5;" x1="10" x2="1286" y1="106.2188" y2="106.2188"/><text fill="#333333" font-family="sans-serif" font-size="14" font-weight="bold" lengthAdjust="spacing" textLength="61" x="15" y="159.6348">CCRy = 0</text><line style="stroke:#008000;stroke-width:2.0;" x1="81" x2="81" y1="193.5938" y2="193.5938"/><line style="stroke:#008000;stroke-width:2.0;" x1="81" x2="81" y1="179.5938" y2="193.5938"/><line style="stroke:#008000;stroke-width:2.0;" x1="81" x2="581" y1="179.5938" y2="179.5938"/><line style="stroke:#008000;stroke-width:2.0;" x1="581" x2="581" y1="179.5938" y2="193.5938"/><line style="stroke:#008000;stroke-width:2.0;" x1="581" x2="1081" y1="193.5938" y2="193.5938"/><line style="stroke:#008000;stroke-width:2.0;" x1="1081" x2="1081" y1="179.5938" y2="193.5938"/><line style="stroke:#008000;stroke-width:2.0;" x1="1081" x2="1281" y1="179.5938" y2="179.5938"/><line style="stroke:#8B0000;stroke-width:1.5;" x1="83.5" x2="578.5" y1="171.5938" y2="171.5938"/><polygon fill="#8B0000" points="91.5,175.5938,91.5,167.5938,83.5,171.5938" style="stroke:#8B0000;stroke-width:2.0;"/><polygon fill="#8B0000" points="570.5,175.5938,570.5,167.5938,578.5,171.5938" style="stroke:#8B0000;stroke-width:2.0;"/><text fill="#8B0000" font-family="sans-serif" font-size="12" lengthAdjust="spacing" textLength="3" x="317" y="118.6758"> </text><text fill="#8B0000" font-family="sans-serif" font-size="12" lengthAdjust="spacing" textLength="3" x="317" y="133.7695"> </text><text fill="#8B0000" font-family="sans-serif" font-size="12" lengthAdjust="spacing" textLength="3" x="317" y="148.8633"> </text><text fill="#8B0000" font-family="sans-serif" font-size="12" lengthAdjust="spacing" textLength="25" x="320" y="163.957">ARR</text><line style="stroke:#333333;stroke-width:0.5;" x1="10" x2="1286" y1="201.5938" y2="201.5938"/><text fill="#333333" font-family="sans-serif" font-size="14" font-weight="bold" lengthAdjust="spacing" textLength="61" x="15" y="255.0098">CCRz = 2</text><line style="stroke:#008000;stroke-width:2.0;" x1="81" x2="181" y1="288.9688" y2="288.9688"/><line style="stroke:#008000;stroke-width:2.0;" x1="181" x2="181" y1="274.9688" y2="288.9688"/><line style="stroke:#008000;stroke-width:2.0;" x1="181" x2="681" y1="274.9688" y2="274.9688"/><line style="stroke:#008000;stroke-width:2.0;" x1="681" x2="681" y1="274.9688" y2="288.9688"/><line style="stroke:#008000;stroke-width:2.0;" x1="681" x2="1181" y1="288.9688" y2="288.9688"/><line style="stroke:#008000;stroke-width:2.0;" x1="1181" x2="1181" y1="274.9688" y2="288.9688"/><line style="stroke:#008000;stroke-width:2.0;" x1="1181" x2="1281" y1="274.9688" y2="274.9688"/><line style="stroke:#8B0000;stroke-width:1.5;" x1="183.5" x2="1178.5" y1="266.9688" y2="266.9688"/><polygon fill="#8B0000" points="191.5,270.9688,191.5,262.9688,183.5,266.9688" style="stroke:#8B0000;stroke-width:2.0;"/><polygon fill="#8B0000" points="1170.5,270.9688,1170.5,262.9688,1178.5,266.9688" style="stroke:#8B0000;stroke-width:2.0;"/><text fill="#8B0000" font-family="sans-serif" font-size="12" lengthAdjust="spacing" textLength="3" x="600" y="214.0508"> </text><text fill="#8B0000" font-family="sans-serif" font-size="12" lengthAdjust="spacing" textLength="3" x="600" y="229.1445"> </text><text fill="#8B0000" font-family="sans-serif" font-size="12" lengthAdjust="spacing" textLength="3" x="600" y="244.2383"> </text><text fill="#8B0000" font-family="sans-serif" font-size="12" lengthAdjust="spacing" textLength="159" x="603" y="259.332">output signal period = 2*ARR</text><line style="stroke:#333333;stroke-width:2.0;" x1="81" x2="81" y1="296.9688" y2="301.9688"/><line style="stroke:#333333;stroke-width:2.0;" x1="131" x2="131" y1="296.9688" y2="301.9688"/><line style="stroke:#333333;stroke-width:2.0;" x1="181" x2="181" y1="296.9688" y2="301.9688"/><line style="stroke:#333333;stroke-width:2.0;" x1="231" x2="231" y1="296.9688" y2="301.9688"/><line style="stroke:#333333;stroke-width:2.0;" x1="281" x2="281" y1="296.9688" y2="301.9688"/><line style="stroke:#333333;stroke-width:2.0;" x1="331" x2="331" y1="296.9688" y2="301.9688"/><line style="stroke:#333333;stroke-width:2.0;" x1="381" x2="381" y1="296.9688" y2="301.9688"/><line style="stroke:#333333;stroke-width:2.0;" x1="431" x2="431" y1="296.9688" y2="301.9688"/><line style="stroke:#333333;stroke-width:2.0;" x1="481" x2="481" y1="296.9688" y2="301.9688"/><line style="stroke:#333333;stroke-width:2.0;" x1="531" x2="531" y1="296.9688" y2="301.9688"/><line style="stroke:#333333;stroke-width:2.0;" x1="581" x2="581" y1="296.9688" y2="301.9688"/><line style="stroke:#333333;stroke-width:2.0;" x1="631" x2="631" y1="296.9688" y2="301.9688"/><line style="stroke:#333333;stroke-width:2.0;" x1="681" x2="681" y1="296.9688" y2="301.9688"/><line style="stroke:#333333;stroke-width:2.0;" x1="731" x2="731" y1="296.9688" y2="301.9688"/><line style="stroke:#333333;stroke-width:2.0;" x1="781" x2="781" y1="296.9688" y2="301.9688"/><line style="stroke:#333333;stroke-width:2.0;" x1="831" x2="831" y1="296.9688" y2="301.9688"/><line style="stroke:#333333;stroke-width:2.0;" x1="881" x2="881" y1="296.9688" y2="301.9688"/><line style="stroke:#333333;stroke-width:2.0;" x1="931" x2="931" y1="296.9688" y2="301.9688"/><line style="stroke:#333333;stroke-width:2.0;" x1="981" x2="981" y1="296.9688" y2="301.9688"/><line style="stroke:#333333;stroke-width:2.0;" x1="1031" x2="1031" y1="296.9688" y2="301.9688"/><line style="stroke:#333333;stroke-width:2.0;" x1="1081" x2="1081" y1="296.9688" y2="301.9688"/><line style="stroke:#333333;stroke-width:2.0;" x1="1131" x2="1131" y1="296.9688" y2="301.9688"/><line style="stroke:#333333;stroke-width:2.0;" x1="1181" x2="1181" y1="296.9688" y2="301.9688"/><line style="stroke:#333333;stroke-width:2.0;" x1="1231" x2="1231" y1="296.9688" y2="301.9688"/><line style="stroke:#333333;stroke-width:2.0;" x1="1281" x2="1281" y1="296.9688" y2="301.9688"/><line style="stroke:#333333;stroke-width:2.0;" x1="81" x2="1281" y1="296.9688" y2="296.9688"/><text fill="#000000" font-family="Helvetica" font-size="11" lengthAdjust="spacing" textLength="6" x="78" y="314.3877">0</text><text fill="#000000" font-family="Helvetica" font-size="11" lengthAdjust="spacing" textLength="6" x="128" y="314.3877">1</text><text fill="#000000" font-family="Helvetica" font-size="11" lengthAdjust="spacing" textLength="6" x="178" y="314.3877">2</text><text fill="#000000" font-family="Helvetica" font-size="11" lengthAdjust="spacing" textLength="6" x="228" y="314.3877">3</text><text fill="#000000" font-family="Helvetica" font-size="11" lengthAdjust="spacing" textLength="6" x="278" y="314.3877">4</text><text fill="#000000" font-family="Helvetica" font-size="11" lengthAdjust="spacing" textLength="6" x="328" y="314.3877">5</text><text fill="#000000" font-family="Helvetica" font-size="11" lengthAdjust="spacing" textLength="6" x="378" y="314.3877">6</text><text fill="#000000" font-family="Helvetica" font-size="11" lengthAdjust="spacing" textLength="6" x="428" y="314.3877">7</text><text fill="#000000" font-family="Helvetica" font-size="11" lengthAdjust="spacing" textLength="6" x="478" y="314.3877">8</text><text fill="#000000" font-family="Helvetica" font-size="11" lengthAdjust="spacing" textLength="6" x="528" y="314.3877">9</text><text fill="#000000" font-family="Helvetica" font-size="11" lengthAdjust="spacing" textLength="12" x="575" y="314.3877">10</text><text fill="#000000" font-family="Helvetica" font-size="11" lengthAdjust="spacing" textLength="12" x="625" y="314.3877">11</text><text fill="#000000" font-family="Helvetica" font-size="11" lengthAdjust="spacing" textLength="12" x="675" y="314.3877">12</text><text fill="#000000" font-family="Helvetica" font-size="11" lengthAdjust="spacing" textLength="12" x="725" y="314.3877">13</text><text fill="#000000" font-family="Helvetica" font-size="11" lengthAdjust="spacing" textLength="12" x="775" y="314.3877">14</text><text fill="#000000" font-family="Helvetica" font-size="11" lengthAdjust="spacing" textLength="12" x="825" y="314.3877">15</text><text fill="#000000" font-family="Helvetica" font-size="11" lengthAdjust="spacing" textLength="12" x="875" y="314.3877">16</text><text fill="#000000" font-family="Helvetica" font-size="11" lengthAdjust="spacing" textLength="12" x="925" y="314.3877">17</text><text fill="#000000" font-family="Helvetica" font-size="11" lengthAdjust="spacing" textLength="12" x="975" y="314.3877">18</text><text fill="#000000" font-family="Helvetica" font-size="11" lengthAdjust="spacing" textLength="12" x="1025" y="314.3877">19</text><text fill="#000000" font-family="Helvetica" font-size="11" lengthAdjust="spacing" textLength="12" x="1075" y="314.3877">20</text><text fill="#000000" font-family="Helvetica" font-size="11" lengthAdjust="spacing" textLength="12" x="1125" y="314.3877">21</text><text fill="#000000" font-family="Helvetica" font-size="11" lengthAdjust="spacing" textLength="12" x="1175" y="314.3877">22</text><text fill="#000000" font-family="Helvetica" font-size="11" lengthAdjust="spacing" textLength="12" x="1225" y="314.3877">23</text><line style="stroke:#0000FF;stroke-width:1.5;" x1="581" x2="581" y1="84.2188" y2="179.5938"/><polygon fill="#0000FF" points="578.2638,172.0762,583.7362,172.0762,581,179.5938" style="stroke:#0000FF;stroke-width:1.5;"/><text fill="#0000FF" font-family="Serif" font-size="14" lengthAdjust="spacing" textLength="4" x="581" y="151.2539"> </text><text fill="#0000FF" font-family="Serif" font-size="14" lengthAdjust="spacing" textLength="73" x="585" y="169">match CCR1</text><line style="stroke:#0000FF;stroke-width:1.5;" x1="1081" x2="1081" y1="84.2188" y2="179.5938"/><polygon fill="#0000FF" points="1078.2638,172.0762,1083.7362,172.0762,1081,179.5938" style="stroke:#0000FF;stroke-width:1.5;"/><text fill="#0000FF" font-family="Serif" font-size="14" lengthAdjust="spacing" textLength="4" x="1081" y="151.2539"> </text><text fill="#0000FF" font-family="Serif" font-size="14" lengthAdjust="spacing" textLength="73" x="1085" y="169">match CCR1</text><line style="stroke:#0000FF;stroke-width:1.5;" x1="181" x2="181" y1="84.2188" y2="274.9688"/><polygon fill="#0000FF" points="178.2638,267.4512,183.7362,267.4512,181,274.9688" style="stroke:#0000FF;stroke-width:1.5;"/><text fill="#0000FF" font-family="Serif" font-size="14" lengthAdjust="spacing" textLength="4" x="181" y="228.8828"> </text><text fill="#0000FF" font-family="Serif" font-size="14" lengthAdjust="spacing" textLength="73" x="185" y="246.6289">match CCR2</text><text fill="#0000FF" font-family="Serif" font-size="14" lengthAdjust="spacing" textLength="4" x="181" y="264.375"> </text><line style="stroke:#0000FF;stroke-width:1.5;" x1="681" x2="681" y1="84.2188" y2="274.9688"/><polygon fill="#0000FF" points="678.2638,267.4512,683.7362,267.4512,681,274.9688" style="stroke:#0000FF;stroke-width:1.5;"/><text fill="#0000FF" font-family="Serif" font-size="14" lengthAdjust="spacing" textLength="4" x="681" y="211.1368"> </text><text fill="#0000FF" font-family="Serif" font-size="14" lengthAdjust="spacing" textLength="73" x="685" y="228.8828">match CCR2</text><text fill="#0000FF" font-family="Serif" font-size="14" lengthAdjust="spacing" textLength="4" x="681" y="246.6289"> </text><text fill="#0000FF" font-family="Serif" font-size="14" lengthAdjust="spacing" textLength="4" x="681" y="264.375"> </text><line style="stroke:#0000FF;stroke-width:1.5;" x1="1181" x2="1181" y1="84.2188" y2="274.9688"/><polygon fill="#0000FF" points="1178.2638,267.4512,1183.7362,267.4512,1181,274.9688" style="stroke:#0000FF;stroke-width:1.5;"/><text fill="#0000FF" font-family="Serif" font-size="14" lengthAdjust="spacing" textLength="4" x="1181" y="246.6289"> </text><text fill="#0000FF" font-family="Serif" font-size="14" lengthAdjust="spacing" textLength="73" x="1185" y="264.375">match CCR2</text><rect fill="#DDDDDD" height="27.6094" id="_legend" rx="7.5" ry="7.5" style="stroke:#333333;stroke-width:0.5;" width="423" x="436" y="322.8047"/><text fill="#333333" font-family="sans-serif" font-size="14" font-weight="bold" lengthAdjust="spacing" textLength="413" x="441" y="342.3379">This is channel Y output signal and channel Z output signal</text><!--MD5=[402613e5acf819058cce8d594c5a196d]
@startuml{doc/TimingDiagram_plantUML.svg}
<style>
arrow {
	FontName SansSerif
	FontSize 16
	LineColor blue
}
timeline {
    BackgroundColor Bisque
    FontName Helvetica
    FontSize 11
    FontColor black
  }
  binary {
    LineColor green
  }
</style>
title ARR = 10
legend
This is channel Y output signal and channel Z output signal
end legend
concise "CNT" as C
binary   "CCRy = 0"   as C0
binary   "CCRz = 2"   as C1

@C
0 is 0
1 is 1
2 is 2
3 is 3
4 is 4
5 is 5
6 is 6
7 is 7
8 is 8
9 is 9
0 is 0
1 is 1
2 is 2
3 is 3
4 is 4
5 is 5
6 is 6
7 is 7
8 is 8
9 is 9
10 is 0
11 is 1
12 is 2
13 is 3
14 is 4
15 is 5
16 is 6
17 is 7
18 is 8
19 is 9
20 is 0
21 is 1
22 is 2
23 is 3

@C0
0 is HIGH
C0@0 <-> @10 : \n\n\n ARR
10 is LOW
C -> C0 : \n match CCR1
20 is HIGH
C -> C0 : \n match CCR1


@C1
2 is HIGH
C -> C1 : \n match CCR2 \n
C1@2 <-> @22 : \n\n\n output signal period = 2*ARR
12 is LOW
C -> C1 : \n match CCR2 \n\n
22 is HIGH
C -> C1 : \n match CCR2
@enduml

PlantUML version 1.2022.13(Sat Nov 19 14:22:17 CET 2022)
(GPL source distribution)
Java Runtime: OpenJDK Runtime Environment
JVM: OpenJDK 64-Bit Server VM
Default Encoding: Cp1252
Language: en
Country: US
--></g></svg>